<?xml version="1.0" encoding="UTF-8" standalone="no"?>
<svg
   xmlns:dc="http://purl.org/dc/elements/1.1/"
   xmlns:cc="http://creativecommons.org/ns#"
   xmlns:rdf="http://www.w3.org/1999/02/22-rdf-syntax-ns#"
   xmlns:svg="http://www.w3.org/2000/svg"
   xmlns="http://www.w3.org/2000/svg"
   viewBox="0 0 413.17334 574.53333"
   height="413.17334"
   width="413.17334"
   xml:space="preserve"
   id="svg2"
   version="1.1"><metadata
     id="metadata8"><rdf:RDF><cc:Work
         rdf:about=""><dc:format>image/svg+xml</dc:format><dc:type
           rdf:resource="http://purl.org/dc/dcmitype/StillImage" /></cc:Work></rdf:RDF></metadata><defs
     id="defs6" /><g
     transform="matrix(1.3333333,0,0,-1.3333333,0,574.53333)"
     id="g10"><g
       transform="scale(0.1)"
       id="g12"><path
         id="path14"
         style="fill:#ffffff;fill-opacity:1;fill-rule:nonzero;stroke:none"
         d="m 3098.85,2759.61 c 0,-855.77 -693.72,-1549.42 -1549.43,-1549.42 -388.51,0 -743.619,142.98 -1015.572,379.2 -11.243,25.06 -73.516,85.25 -114.207,129.86 -25.2,27.63 -54.703,55.63 -87.922,82.16 C 123.961,2065.08 0,2397.86 0,2759.61 c 0,855.7 693.691,1549.43 1549.42,1549.43 855.71,0 1549.43,-693.73 1549.43,-1549.43" /><path
         id="path16"
         style="fill:#ffffff;fill-opacity:1;fill-rule:nonzero;stroke:none"
         d="m 266.035,907.34 v -64.508 h -8.066 c -23.184,12.609 -57.449,20.66 -84.668,20.66 -29.738,0.508 -55.946,-9.07 -76.1018,-32.75 -18.6445,-23.183 -26.2148,-57.461 -26.2148,-87.203 0,-29.73 7.5703,-65.008 27.2187,-88.187 19.1519,-21.68 46.8749,-32.262 76.1059,-31.762 26.714,0 60.984,8.07 84.168,20.66 h 9.074 v -64 c -31.75,-11.59 -58.965,-18.141 -92.738,-18.648 -44.352,0 -87.1958,12.097 -118.9458,43.347 -39.3047,37.293 -54.9297,87.692 -54.9297,140.61 0,44.351 14.1094,91.222 45.3594,127.011 32.7539,36.789 77.1091,52.918 127.0041,52.918 34.277,-0.5 61.484,-7.058 92.734,-18.148" /><path
         id="path18"
         style="fill:#ffffff;fill-opacity:1;fill-rule:nonzero;stroke:none"
         d="m 485.273,623.59 c 58.973,0 97.278,45.871 97.278,119.949 0,66.543 -38.305,120.461 -97.278,120.461 -58.964,0 -96.765,-46.371 -96.765,-120.461 0,-74.078 37.801,-119.949 96.765,-119.949 z m 0,301.898 c 97.278,0 167.332,-71.566 167.332,-181.949 0,-110.367 -70.054,-181.937 -167.332,-181.937 -97.265,0 -166.816,71.57 -166.816,181.937 0,110.383 69.551,181.949 166.816,181.949" /><path
         id="path20"
         style="fill:#ffffff;fill-opacity:1;fill-rule:nonzero;stroke:none"
         d="M 865.293,567.148 789.188,800 776.594,567.148 h -60.989 l 16.133,311.473 c 0.496,24.188 19.649,44.848 44.348,45.348 23.687,0.511 42.84,-15.61 49.891,-36.278 l 74.597,-225.793 72.071,225.793 c 7.05,22.68 23.183,35.778 47.375,35.778 26.71,0 45.87,-17.629 47.88,-45.36 l 16.12,-310.961 h -66.52 l -10.08,237.383 -75.604,-237.383 h -66.523" /><path
         id="path22"
         style="fill:#ffffff;fill-opacity:1;fill-rule:nonzero;stroke:none"
         d="M 1334.51,567.148 1258.41,800 1245.81,567.148 h -60.98 l 16.13,311.473 c 0.5,24.188 19.66,44.848 44.35,45.348 23.68,0.511 42.83,-15.61 49.9,-36.278 l 74.58,-225.793 72.08,225.793 c 7.06,22.68 23.18,35.778 47.38,35.778 26.71,0 45.86,-17.629 47.87,-45.36 l 16.13,-310.961 h -66.52 l -10.09,237.383 -75.6,-237.383 h -66.53" /><path
         id="path24"
         style="fill:#ffffff;fill-opacity:1;fill-rule:nonzero;stroke:none"
         d="m 1845.57,919.949 h 61.48 v -200.09 c 0,-41.328 -2.01,-76.609 -26.71,-109.371 -26.71,-35.277 -71.06,-48.886 -111.38,-48.886 -46.88,0 -91.73,19.148 -115.92,56.449 -19.66,30.238 -21.67,67.031 -21.67,101.808 v 200.09 h 68.03 v -220.75 c 0,-18.66 2.03,-38.308 13.11,-53.937 14.11,-17.133 39.31,-22.172 59.47,-22.172 23.19,0 45.86,7.051 60.48,26.199 10.08,14.621 13.11,31.762 13.11,49.402 v 221.258" /><path
         id="path26"
         style="fill:#ffffff;fill-opacity:1;fill-rule:nonzero;stroke:none"
         d="m 2082.95,894.238 137.59,-215.707 v 241.418 h 61.49 V 567.148 h -65.02 L 2054.22,822.672 V 567.148 h -61.49 v 310.454 c 0,23.699 15.63,45.867 40.82,46.367 22.69,0 37.81,-12.09 49.4,-29.731" /><path
         id="path28"
         style="fill:#ffffff;fill-opacity:1;fill-rule:nonzero;stroke:none"
         d="m 2455.91,567.148 h -68.04 v 352.801 h 68.04 V 567.148" /><path
         id="path30"
         style="fill:#ffffff;fill-opacity:1;fill-rule:nonzero;stroke:none"
         d="m 2516.39,858.449 v 61.5 h 262.08 v -61.5 h -97.78 V 567.148 h -68.04 v 291.301 h -96.26" /><path
         id="path32"
         style="fill:#ffffff;fill-opacity:1;fill-rule:nonzero;stroke:none"
         d="m 3015.34,919.949 h 70.57 L 2971.49,702.211 V 567.148 h -68.03 v 135.063 l -114.92,217.738 h 76.62 l 75.08,-153.719 75.61,153.719 h -0.51" /><path
         id="path34"
         style="fill:#ffffff;fill-opacity:1;fill-rule:nonzero;stroke:none"
         d="m 573.477,190.512 c 27.714,-19.653 39.816,-51.41 39.816,-82.653 0,-29.7379 -13.613,-56.9488 -34.777,-74.5895 C 548.27,8.05859 508.457,0 470.652,0 434.363,0 400.098,7.05859 365.82,18.1406 v 61.9883 h 8.067 c 27.722,-9.5703 61.496,-18.6367 97.273,-18.6367 27.219,0 76.606,7.5586 76.106,45.3478 -0.508,24.199 -23.692,36.289 -45.364,42.84 -26.707,8.07 -54.429,15.629 -80.132,27.73 -36.29,18.141 -57.454,51.41 -57.454,89.711 0,27.719 14.61,52.918 34.27,70.051 22.684,18.656 52.41,26.219 81.648,26.707 38.301,0 72.579,-6.547 109.871,-17.129 v -61.488 h -9.07 c -24.695,9.578 -66.531,17.136 -96.765,17.136 -21.172,0 -53.938,-7.558 -53.938,-33.769 0,-26.207 41.328,-36.789 64.512,-45.359 26.719,-8.571 54.433,-16.629 78.633,-32.758" /><path
         id="path36"
         style="fill:#ffffff;fill-opacity:1;fill-rule:nonzero;stroke:none"
         d="m 691.926,290.301 c 0,37.289 30.23,68.051 68.035,68.051 h 176.394 v -61.5 H 776.086 c -8.566,0 -16.125,-7.051 -16.125,-15.622 V 220.75 H 890.496 V 161.781 H 759.961 V 67.0313 H 936.355 V 5.53906 H 691.926 V 290.301" /><path
         id="path38"
         style="fill:#ffffff;fill-opacity:1;fill-rule:nonzero;stroke:none"
         d="m 1077.47,193.531 h 52.42 c 32.26,0 65.52,12.61 65.52,51.41 0,40.321 -20.66,53.43 -68.54,53.43 h -33.77 c -8.57,0 -15.63,-8.07 -15.63,-16.633 z M 1292.69,5.53906 h -82.66 l -88.2,127.51194 h -44.36 V 5.53906 h -68.04 V 289.801 c 0,37.789 31.25,68.551 69.55,68.551 h 45.87 c 30.24,-1.02 57.96,0.488 86.19,-13.114 36.28,-17.648 53.92,-58.468 53.92,-97.777 -0.51,-37.301 -13.6,-72.57 -46.37,-93.231 -7.55,-4.55 -15.11,-8.578 -24.19,-11.101 L 1292.69,5.53906" /><path
         id="path40"
         style="fill:#ffffff;fill-opacity:1;fill-rule:nonzero;stroke:none"
         d="m 1556.28,358.352 h 65.52 L 1508.9,34.2695 c -7.05,-19.6484 -23.69,-32.24997 -44.35,-32.75778 -21.17,0 -39.32,13.10938 -47.38,32.75778 L 1304.28,358.352 h 72.58 l 88.7,-267.6332 90.72,267.6332" /><path
         id="path42"
         style="fill:#ffffff;fill-opacity:1;fill-rule:nonzero;stroke:none"
         d="m 1750.31,5.53906 h -68.03 V 358.352 h 68.03 V 5.53906" /><path
         id="path44"
         style="fill:#ffffff;fill-opacity:1;fill-rule:nonzero;stroke:none"
         d="M 2085.98,345.742 V 281.23 h -8.07 c -23.18,12.602 -57.45,20.661 -84.67,20.661 -29.73,0.507 -55.95,-9.071 -76.1,-32.75 -18.65,-23.192 -26.21,-57.461 -26.21,-87.2 0,-29.742 7.56,-65.011 27.21,-88.191 19.15,-21.6797 46.88,-32.2578 76.11,-31.7578 26.71,0 60.98,8.0664 84.17,20.6562 h 9.07 v -64 C 2055.73,7.05859 2028.52,0.5 1994.76,0 c -44.36,0 -87.2,12.1016 -118.95,43.3516 -39.32,37.289 -54.94,87.6874 -54.94,140.6094 0,44.348 14.11,91.219 45.36,127 32.76,36.801 77.11,52.918 127.01,52.918 34.27,-0.488 61.49,-7.047 92.74,-18.137" /><path
         id="path46"
         style="fill:#ffffff;fill-opacity:1;fill-rule:nonzero;stroke:none"
         d="m 2155.53,290.301 c 0,37.289 30.23,68.051 68.03,68.051 h 176.4 v -61.5 H 2239.7 c -8.58,0 -16.14,-7.051 -16.14,-15.622 V 220.75 H 2354.1 V 161.781 H 2223.56 V 67.0313 h 176.4 V 5.53906 H 2155.53 V 290.301" /><path
         id="path48"
         style="fill:#ffffff;fill-opacity:1;fill-rule:nonzero;stroke:none"
         d="m 2662.55,190.512 c 27.71,-19.653 39.81,-51.41 39.81,-82.653 0,-29.7379 -13.61,-56.9488 -34.77,-74.5895 C 2637.34,8.05859 2597.53,0 2559.73,0 2523.45,0 2489.17,7.05859 2454.9,18.1406 v 61.9883 h 8.06 c 27.72,-9.5703 61.49,-18.6367 97.27,-18.6367 27.22,0 76.62,7.5586 76.11,45.3478 -0.51,24.199 -23.69,36.289 -45.36,42.84 -26.71,8.07 -54.44,15.629 -80.14,27.73 -36.29,18.141 -57.45,51.41 -57.45,89.711 0,27.719 14.62,52.918 34.27,70.051 22.68,18.656 52.42,26.219 81.65,26.707 38.3,0 72.57,-6.547 109.87,-17.129 v -61.488 h -9.07 c -24.7,9.578 -66.54,17.136 -96.77,17.136 -21.17,0 -53.93,-7.558 -53.93,-33.769 0,-26.207 41.33,-36.789 64.52,-45.359 26.7,-8.571 54.43,-16.629 78.62,-32.758" /><path
         id="path50"
         style="fill:#ee2722;fill-opacity:1;fill-rule:nonzero;stroke:none"
         d="m 1332.15,2097.91 h -202.4 v 1853.67 h 202.4 V 2097.91" /><path
         id="path52"
         style="fill:#ee2722;fill-opacity:1;fill-rule:nonzero;stroke:none"
         d="m 1909.72,2951.96 v 182.67 c 0,64.16 -46.91,108.6 -106.13,108.6 -59.25,0 -106.15,-44.44 -106.15,-108.6 v -306.1 l 192.54,91.33 c 12.32,4.96 19.74,19.77 19.74,32.1 z m -212.28,-335.69 v -246.84 c 0,-64.17 46.9,-108.61 106.15,-108.61 59.22,0 106.13,44.44 106.13,108.61 v 155.5 h 202.43 v -155.5 c 0,-197.47 -143.19,-296.2 -308.56,-296.2 -162.91,0 -308.54,98.73 -308.54,296.2 v 765.2 c 0,197.46 145.63,296.19 308.54,296.19 165.37,0 308.56,-98.73 308.56,-296.19 v -182.67 c 0,-118.48 -34.57,-150.58 -128.37,-197.46 l -286.34,-138.23" /><path
         id="path54"
         style="fill:#ee2722;fill-opacity:1;fill-rule:nonzero;stroke:none"
         d="m 2435.04,2369.43 c 0,-64.17 46.9,-108.61 106.15,-108.61 59.23,0 106.13,44.44 106.13,108.61 v 345.58 l -138.24,-61.71 c -41.95,-19.75 -74.04,-46.9 -74.04,-108.62 z m 414.69,0 c 0,-197.47 -145.63,-296.2 -308.54,-296.2 -165.39,0 -308.55,98.73 -308.55,296.2 v 175.25 c 0,140.71 83.94,234.5 190.07,281.39 l 224.61,98.75 v 209.81 c 0,64.16 -46.9,108.6 -106.13,108.6 -59.25,0 -106.15,-44.44 -106.15,-108.6 v -138.25 h -202.4 v 138.25 c 0,197.46 143.16,296.19 308.55,296.19 162.91,0 308.54,-98.73 308.54,-296.19 v -765.2" /><path
         id="path56"
         style="fill:#ee2722;fill-opacity:1;fill-rule:nonzero;stroke:none"
         d="m 640.586,3243.23 c 59.238,0 106.152,-44.44 106.152,-108.6 v -765.2 c 0,-64.17 -46.914,-108.61 -106.152,-108.61 -59.238,0 -106.133,44.44 -106.133,108.61 v 765.2 c 0.012,27.74 -0.273,108.78 -0.273,108.78 0,0 72.773,-0.18 106.406,-0.18 z m 0,-1170 c 162.91,0 308.547,98.73 308.547,296.2 v 765.2 c 0,197.46 -145.637,296.19 -308.547,296.19 l -308.789,-0.67 0.234,-295.52 V 1801.06 c 60.672,-76.95 128.473,-148.02 202.422,-212.18 v 523.84 c 29.61,-24.68 74.043,-39.49 106.133,-39.49" /></g></g></svg>